<?xml version="1.0" encoding="UTF-8"?>
<svg xmlns="http://www.w3.org/2000/svg" xmlns:xlink="http://www.w3.org/1999/xlink" width="20px" height="20px" viewBox="0 0 20 20" version="1.1">
<g id="surface1">
<path style=" stroke:none;fill-rule:evenodd;fill:rgb(0.392157%,25.490196%,31.372549%);fill-opacity:1;" d="M 1.011719 12.550781 L 1.011719 3.09375 C 1.011719 2.917969 1.121094 2.773438 1.285156 2.726562 C 1.449219 2.675781 1.617188 2.730469 1.714844 2.871094 L 4.527344 6.8125 C 4.582031 6.882812 4.601562 6.957031 4.601562 7.035156 L 4.601562 12.558594 C 4.601562 14.957031 5.796875 16.152344 8.195312 16.152344 L 11.789062 16.152344 C 14.179688 16.152344 15.382812 14.957031 15.382812 12.558594 L 15.382812 6.949219 C 15.382812 6.863281 15.40625 6.789062 15.457031 6.726562 L 18.269531 2.785156 C 18.371094 2.644531 18.542969 2.585938 18.703125 2.636719 C 18.871094 2.6875 18.972656 2.832031 18.972656 3.007812 L 18.972656 12.550781 C 18.972656 17.339844 16.570312 19.738281 11.785156 19.738281 L 8.1875 19.738281 C 3.414062 19.746094 1.011719 17.339844 1.011719 12.550781 "/>
<path style=" stroke:none;fill-rule:evenodd;fill:rgb(95.686275%,50.980392%,12.54902%);fill-opacity:1;" d="M 9.085938 13.464844 L 10.710938 13.464844 C 11.601562 13.464844 12.332031 12.679688 12.332031 11.726562 L 12.332031 4.007812 L 9.898438 0.261719 L 7.464844 4.007812 L 7.464844 11.726562 C 7.464844 12.679688 8.195312 13.464844 9.085938 13.464844 "/>
</g>
</svg>
