<?xml version="1.0" encoding="UTF-8"?> <svg xmlns="http://www.w3.org/2000/svg" version="1.1" viewBox="0 0 1712.2 347.3" xml:space="preserve"> <style type="text/css"> .st0{fill:#004050;} .st1{fill-rule:evenodd;clip-rule:evenodd;fill:#004050;} .st2{fill-rule:evenodd;clip-rule:evenodd;fill:#F48120;} </style> <path class="st0" d="m1464.2 198.5c0-66.1 33.1-99.2 99.2-99.2h49.6c66.1 0 99.2 33.1 99.2 99.2v49.6c0 66.1-33.1 99.2-99.2 99.2h-49.6c-66.1 0-99.2-33.1-99.2-99.2v-49.6zm99.2-49.7c-33.1 0-49.6 16.6-49.6 49.6v49.6c0 33.1 16.5 49.6 49.6 49.6h49.6c33 0 49.6-16.5 49.6-49.6v-49.6c0-33-16.6-49.6-49.6-49.6h-49.6zm-449 49.7v148.8h-49.6v-148.8c0-66.1 33.1-99.2 99.2-99.2 33.1 0 57.8 8.3 74.4 24.8 16.5-16.5 41.3-24.8 74.4-24.8 66.1 0 99.2 33.1 99.2 99.2v148.8h-49.6v-148.8c0-33-16.6-49.6-49.6-49.6-33.1 0-49.6 16.6-49.6 49.6v148.8h-49.6v-148.8c0-33-16.5-49.6-49.6-49.6-33.1-0.1-49.6 16.5-49.6 49.6zm-414.9 99.2h24.8v49.6h-24.8c-66.1 0-99.2-33.1-99.2-99.2v-248.1h49.6v99.2h74.4v49.6h-74.4v99.2c0 33.2 16.5 49.7 49.6 49.7zm-300.1 0h124v49.6h-124c-66.1 0-99.2-33.1-99.2-99.2v-49.6c0-66.1 33.1-99.2 99.2-99.2h49.6c66.1 0 99.2 33.1 99.2 99.2v49.6h-198.5c0 33.1 16.6 49.6 49.7 49.6zm-49.7-99.2h148.8c0-33-16.6-49.6-49.6-49.6h-49.6c-33-0.1-49.6 16.5-49.6 49.6zm-300.1 0v148.8h-49.6v-148.8c0-66.1 33.1-99.2 99.2-99.2h49.6c66.1 0 99.2 33.1 99.2 99.2v148.8h-49.6v-148.8c0-33-16.6-49.6-49.6-49.6h-49.6c-33.1-0.1-49.6 16.5-49.6 49.6z"></path> <path class="st1" d="m762.7 245.7v-130.6c0-2.4 1.5-4.4 3.7-5.1 2.3-0.7 4.6 0.1 6 2l38.8 54.4c0.7 1 1 2 1 3.1v76.2c0 33.1 16.5 49.6 49.6 49.6h49.6c33 0 49.6-16.5 49.6-49.6v-77.4c0-1.2 0.3-2.2 1-3.1l38.8-54.4c1.4-1.9 3.8-2.7 6-2 2.3 0.7 3.7 2.7 3.7 5.1v131.7c0 66.1-33.1 99.2-99.2 99.2h-49.3c-66.2 0.1-99.3-33-99.3-99.1"></path> <path class="st2" d="m874.2 258.2h22.4c12.3 0 22.4-10.8 22.4-24v-106.4l-33.6-51.8-33.7 51.7v106.5c0 13.2 10.1 24 22.5 24"></path> </svg> 